<svg width="172.000000" height="43.000000" viewBox="0 0 172 43" fill="none" xmlns="http://www.w3.org/2000/svg" xmlns:xlink="http://www.w3.org/1999/xlink">
	<desc>
			Created with Pixso.
	</desc>
	<defs/>
	<rect id="Рамка" x="1.500000" y="1.500000" rx="10.000000" width="169.000000" height="40.000000" fill="#94DFEF" fill-opacity="0.100000"/>
	<rect id="Рамка" x="1.500000" y="1.500000" rx="10.000000" width="169.000000" height="40.000000" stroke="#1074BC" stroke-opacity="1.000000" stroke-width="3.000000"/>
	<path id="В процессе" d="M47.7627 28L53.0166 28C56.4541 28 57.875 26.3252 57.875 24.1377C57.875 21.833 56.2832 20.583 54.9502 20.5L54.9502 20.3584C56.2002 20.0166 57.3086 19.1914 57.3086 17.3164C57.3086 15.1875 55.8877 13.4541 52.8457 13.4541L47.7627 13.4541L47.7627 28ZM49.5205 26.4375L49.5205 21.3789L53.1045 21.3789C55.0039 21.3789 56.2002 22.6582 56.2002 24.1377C56.2002 25.417 55.3164 26.4375 53.0166 26.4375L49.5205 26.4375ZM49.5205 19.8457L49.5205 15.0166L52.8457 15.0166C54.7793 15.0166 55.6289 16.042 55.6289 17.3164C55.6289 18.8545 54.3789 19.8457 52.792 19.8457L49.5205 19.8457ZM66.1696 28L67.8444 28L67.8444 18.6543L73.0739 18.6543L73.0739 28L74.7487 28L74.7487 17.0918L66.1696 17.0918L66.1696 28ZM77.8173 32.0918L79.4921 32.0918L79.4921 26.3252L79.6386 26.3252C80.0048 26.9209 80.7177 28.2295 82.8173 28.2295C85.5468 28.2295 87.4511 26.042 87.4511 22.5752C87.4511 19.1377 85.5468 16.9502 82.788 16.9502C80.6591 16.9502 80.0048 18.2539 79.6386 18.8252L79.4384 18.8252L79.4384 17.0918L77.8173 17.0918L77.8173 32.0918ZM79.4677 22.5459C79.4677 20.1045 80.5468 18.4541 82.5927 18.4541C84.7216 18.4541 85.7714 20.2461 85.7714 22.5459C85.7714 24.875 84.6923 26.7207 82.5927 26.7207C80.5761 26.7207 79.4677 25.0166 79.4677 22.5459ZM94.4384 28.2295C97.3925 28.2295 99.3798 25.9834 99.3798 22.6045C99.3798 19.1914 97.3925 16.9502 94.4384 16.9502C91.4843 16.9502 89.4921 19.1914 89.4921 22.6045C89.4921 25.9834 91.4843 28.2295 94.4384 28.2295ZM94.4384 26.7207C92.1923 26.7207 91.1718 24.792 91.1718 22.6045C91.1718 20.417 92.1923 18.4541 94.4384 18.4541C96.6796 18.4541 97.705 20.417 97.705 22.6045C97.705 24.792 96.6796 26.7207 94.4384 26.7207ZM110.516 17.0918L108.841 17.0918L108.841 26.4375L103.611 26.4375L103.611 17.0918L101.937 17.0918L101.937 28L110.374 28L110.374 31.5205L112.049 31.5205L112.049 26.4375L110.516 26.4375L110.516 17.0918ZM119.097 28.2295C121.314 28.2295 122.93 27.1211 123.443 25.4707L121.822 25.0166C121.397 26.1543 120.411 26.7207 119.097 26.7207C117.129 26.7207 115.772 25.4512 115.694 23.1123L123.614 23.1123L123.614 22.4043C123.614 18.3418 121.197 16.9502 118.926 16.9502C115.972 16.9502 114.009 19.2793 114.009 22.6289C114.009 25.9834 115.943 28.2295 119.097 28.2295ZM115.694 21.667C115.806 19.9678 117.007 18.4541 118.926 18.4541C120.743 18.4541 121.91 19.8164 121.91 21.667L115.694 21.667ZM130.603 28.2295C133.015 28.2295 134.607 26.75 134.89 24.8164L133.215 24.8164C132.903 26.0127 131.907 26.7207 130.603 26.7207C128.616 26.7207 127.337 25.0752 127.337 22.5459C127.337 20.0752 128.64 18.4541 130.603 18.4541C132.078 18.4541 132.962 19.3623 133.215 20.3584L134.89 20.3584C134.607 18.3125 132.874 16.9502 130.574 16.9502C127.62 16.9502 125.657 19.2793 125.657 22.6045C125.657 25.8711 127.532 28.2295 130.603 28.2295ZM141.768 28.2295C144.18 28.2295 145.772 26.75 146.055 24.8164L144.38 24.8164C144.068 26.0127 143.072 26.7207 141.768 26.7207C139.781 26.7207 138.501 25.0752 138.501 22.5459C138.501 20.0752 139.805 18.4541 141.768 18.4541C143.243 18.4541 144.126 19.3623 144.38 20.3584L146.055 20.3584C145.772 18.3125 144.038 16.9502 141.739 16.9502C138.785 16.9502 136.822 19.2793 136.822 22.6045C136.822 25.8711 138.697 28.2295 141.768 28.2295ZM153.074 28.2295C155.291 28.2295 156.907 27.1211 157.42 25.4707L155.799 25.0166C155.374 26.1543 154.388 26.7207 153.074 26.7207C151.107 26.7207 149.749 25.4512 149.671 23.1123L157.591 23.1123L157.591 22.4043C157.591 18.3418 155.174 16.9502 152.903 16.9502C149.949 16.9502 147.986 19.2793 147.986 22.6289C147.986 25.9834 149.92 28.2295 153.074 28.2295ZM149.671 21.667C149.783 19.9678 150.984 18.4541 152.903 18.4541C154.72 18.4541 155.887 19.8164 155.887 21.667L149.671 21.667Z" fill="#000000" fill-opacity="1.000000" fill-rule="evenodd"/>
	<path id="Polygon 1" d="M33.6603 14L16.3398 14L25 29L33.6603 14ZM37.1244 12L12.8756 12L25 33L37.1244 12Z" fill="#1074BC" fill-opacity="1.000000" fill-rule="evenodd"/>
</svg>
