<svg width="172.000000" height="43.000000" viewBox="0 0 172 43" fill="none" xmlns="http://www.w3.org/2000/svg" xmlns:xlink="http://www.w3.org/1999/xlink">
	<desc>
			Created with Pixso.
	</desc>
	<defs/>
	<rect id="Контур" x="1.500000" y="1.500000" rx="10.000000" width="169.000000" height="40.000000" fill="#FCCC74" fill-opacity="0.100000"/>
	<rect id="Контур" x="1.500000" y="1.500000" rx="10.000000" width="169.000000" height="40.000000" stroke="#BC7710" stroke-opacity="1.000000" stroke-width="3.000000"/>
	<path id="Завершено" d="M54.4209 28.2002C57.2383 28.2002 59.333 26.4326 59.333 24.0498C59.333 22.2041 58.2393 20.8613 56.4082 20.5586L56.4082 20.4414C57.8779 19.9971 58.7959 18.7861 58.7959 17.1455C58.7959 15.0898 57.1699 13.2539 54.4795 13.2539C51.9648 13.2539 49.875 14.8018 49.792 17.0918L51.4961 17.0918C51.5596 15.6416 52.9365 14.792 54.4502 14.792C56.0518 14.792 57.0918 15.7637 57.0918 17.2334C57.0918 18.7666 55.8906 19.7627 54.167 19.7627L53 19.7627L53 21.3252L54.167 21.3252C56.374 21.3252 57.6045 22.4482 57.6045 24.0498C57.6045 25.5928 56.2617 26.6377 54.3916 26.6377C52.707 26.6377 51.374 25.7686 51.2666 24.3623L49.4795 24.3623C49.582 26.6523 51.5986 28.2002 54.4209 28.2002ZM65.4734 28.2539C67.3728 28.2539 68.3689 27.2334 68.7107 26.5205L68.7937 26.5205L68.7937 28L70.4734 28L70.4734 20.8125C70.4734 17.3457 67.8318 16.9502 66.4353 16.9502C64.7898 16.9502 62.9148 17.5166 62.0603 19.5039L63.6521 20.0752C64.0232 19.2793 64.8972 18.4248 66.4939 18.4248C68.0368 18.4248 68.7937 19.2451 68.7937 20.6416L68.7937 20.7002C68.7937 21.5107 67.9734 21.4375 65.9812 21.6914C63.9597 21.9551 61.7478 22.4043 61.7478 24.9043C61.7478 27.0332 63.3982 28.2539 65.4734 28.2539ZM65.7273 26.75C64.3943 26.75 63.4275 26.1543 63.4275 24.9873C63.4275 23.708 64.5896 23.3125 65.8982 23.1416C66.6062 23.0586 68.5105 22.8584 68.7937 22.5166L68.7937 24.0498C68.7937 25.417 67.7146 26.75 65.7273 26.75ZM73.5389 28L78.6805 28C80.8973 28 82.2352 26.75 82.2352 25.0752C82.2352 23.3613 80.9315 22.4385 79.7352 22.2627C80.9608 22.0039 81.8348 21.3154 81.8348 19.9873C81.8348 18.249 80.3455 17.0918 78.0018 17.0918L73.5389 17.0918L73.5389 28ZM75.1307 26.4668L75.1307 23.1123L78.6805 23.1123C79.8328 23.1123 80.5262 23.8008 80.5262 24.9336C80.5262 25.8857 79.8328 26.4668 78.6805 26.4668L75.1307 26.4668ZM75.1307 21.667L75.1307 18.625L78.0018 18.625C79.3446 18.625 80.16 19.1865 80.16 20.1045C80.16 21.0762 79.3446 21.667 78.0018 21.667L75.1307 21.667ZM89.3357 28.2295C91.5525 28.2295 93.1687 27.1211 93.6814 25.4707L92.0603 25.0166C91.6355 26.1543 90.6491 26.7207 89.3357 26.7207C87.3679 26.7207 86.0105 25.4512 85.9324 23.1123L93.8523 23.1123L93.8523 22.4043C93.8523 18.3418 91.4353 16.9502 89.1648 16.9502C86.2107 16.9502 84.2478 19.2793 84.2478 22.6289C84.2478 25.9834 86.1814 28.2295 89.3357 28.2295ZM85.9324 21.667C86.0447 19.9678 87.2458 18.4541 89.1648 18.4541C90.9812 18.4541 92.1482 19.8164 92.1482 21.667L85.9324 21.667ZM96.4082 32.0918L98.083 32.0918L98.083 26.3252L98.2295 26.3252C98.5957 26.9209 99.3086 28.2295 101.408 28.2295C104.138 28.2295 106.042 26.042 106.042 22.5752C106.042 19.1377 104.138 16.9502 101.379 16.9502C99.25 16.9502 98.5957 18.2539 98.2295 18.8252L98.0293 18.8252L98.0293 17.0918L96.4082 17.0918L96.4082 32.0918ZM98.0586 22.5459C98.0586 20.1045 99.1377 18.4541 101.184 18.4541C103.312 18.4541 104.362 20.2461 104.362 22.5459C104.362 24.875 103.283 26.7207 101.184 26.7207C99.167 26.7207 98.0586 25.0166 98.0586 22.5459ZM108.596 17.0918L108.596 28L121.862 28L121.862 17.0918L120.188 17.0918L120.188 26.4375L116.066 26.4375L116.066 17.0918L114.392 17.0918L114.392 26.4375L110.271 26.4375L110.271 17.0918L108.596 17.0918ZM129.506 28.2295C131.723 28.2295 133.339 27.1211 133.852 25.4707L132.231 25.0166C131.806 26.1543 130.82 26.7207 129.506 26.7207C127.538 26.7207 126.181 25.4512 126.103 23.1123L134.023 23.1123L134.023 22.4043C134.023 18.3418 131.606 16.9502 129.335 16.9502C126.381 16.9502 124.418 19.2793 124.418 22.6289C124.418 25.9834 126.352 28.2295 129.506 28.2295ZM126.103 21.667C126.215 19.9678 127.416 18.4541 129.335 18.4541C131.152 18.4541 132.319 19.8164 132.319 21.667L126.103 21.667ZM138.253 17.0918L136.579 17.0918L136.579 28L138.253 28L138.253 23.3418L143.483 23.3418L143.483 28L145.158 28L145.158 17.0918L143.483 17.0918L143.483 21.7793L138.253 21.7793L138.253 17.0918ZM152.66 28.2295C155.614 28.2295 157.601 25.9834 157.601 22.6045C157.601 19.1914 155.614 16.9502 152.66 16.9502C149.706 16.9502 147.714 19.1914 147.714 22.6045C147.714 25.9834 149.706 28.2295 152.66 28.2295ZM152.66 26.7207C150.414 26.7207 149.393 24.792 149.393 22.6045C149.393 20.417 150.414 18.4541 152.66 18.4541C154.901 18.4541 155.927 20.417 155.927 22.6045C155.927 24.792 154.901 26.7207 152.66 26.7207Z" fill="#000000" fill-opacity="1.000000" fill-rule="evenodd"/>
	<circle id="Ellipse 4" cx="25.000000" cy="21.000000" r="11.000000" stroke="#BC7710" stroke-opacity="1.000000" stroke-width="2.000000"/>
	<path id="Vector 1" d="M15.7463 13.8344L26.0043 25.3344L25.2581 26L24.4316 25.4369L35.6736 8.93689L37.3264 10.0631L25.3638 27.6208L14.2537 15.1656L15.7463 13.8344Z" fill="#BC7710" fill-opacity="1.000000" fill-rule="evenodd"/>
</svg>
