<svg width="172.000000" height="43.000000" viewBox="0 0 172 43" fill="none" xmlns="http://www.w3.org/2000/svg" xmlns:xlink="http://www.w3.org/1999/xlink">
	<desc>
			Created with Pixso.
	</desc>
	<defs/>
	<rect id="Контур" x="1.500000" y="1.500000" rx="10.000000" width="169.000000" height="40.000000" fill="#E5ABFA" fill-opacity="0.100000"/>
	<rect id="Контур" x="1.500000" y="1.500000" rx="10.000000" width="169.000000" height="40.000000" stroke="#AC6BC2" stroke-opacity="1.000000" stroke-width="3.000000"/>
	<path id="Заброшено" d="M49.4209 28.2002C52.2383 28.2002 54.333 26.4326 54.333 24.0498C54.333 22.2041 53.2393 20.8613 51.4082 20.5586L51.4082 20.4414C52.8779 19.9971 53.7959 18.7861 53.7959 17.1455C53.7959 15.0898 52.1699 13.2539 49.4795 13.2539C46.9648 13.2539 44.875 14.8018 44.792 17.0918L46.4961 17.0918C46.5596 15.6416 47.9365 14.792 49.4502 14.792C51.0518 14.792 52.0918 15.7637 52.0918 17.2334C52.0918 18.7666 50.8906 19.7627 49.167 19.7627L48 19.7627L48 21.3252L49.167 21.3252C51.374 21.3252 52.6045 22.4482 52.6045 24.0498C52.6045 25.5928 51.2617 26.6377 49.3916 26.6377C47.707 26.6377 46.374 25.7686 46.2666 24.3623L44.4795 24.3623C44.582 26.6523 46.5986 28.2002 49.4209 28.2002ZM60.4734 28.2539C62.3728 28.2539 63.3689 27.2334 63.7107 26.5205L63.7937 26.5205L63.7937 28L65.4734 28L65.4734 20.8125C65.4734 17.3457 62.8318 16.9502 61.4353 16.9502C59.7898 16.9502 57.9148 17.5166 57.0603 19.5039L58.6521 20.0752C59.0232 19.2793 59.8972 18.4248 61.4939 18.4248C63.0368 18.4248 63.7937 19.2451 63.7937 20.6416L63.7937 20.7002C63.7937 21.5107 62.9734 21.4375 60.9812 21.6914C58.9597 21.9551 56.7478 22.4043 56.7478 24.9043C56.7478 27.0332 58.3982 28.2539 60.4734 28.2539ZM60.7273 26.75C59.3943 26.75 58.4275 26.1543 58.4275 24.9873C58.4275 23.708 59.5896 23.3125 60.8982 23.1416C61.6062 23.0586 63.5105 22.8584 63.7937 22.5166L63.7937 24.0498C63.7937 25.417 62.7146 26.75 60.7273 26.75ZM76.6346 13C76.1024 13.4492 75.3065 13.4492 74.1932 13.4395C73.8319 13.4395 73.4315 13.4395 73.0018 13.4541C69.6766 13.542 68.0262 16.0664 68.0262 20.9248L68.0262 22.0918C68.0262 26.125 69.9891 28.2295 72.9139 28.2295C75.8338 28.2295 77.7723 26.1104 77.7723 22.6875C77.7723 19.25 75.8045 17.4336 73.2557 17.4336C71.7567 17.4336 70.3602 18.0586 69.618 19.4209L69.4764 19.4209C69.7059 16.6084 70.7557 15.1045 73.0262 15.0166C75.0477 14.9336 76.493 14.9873 77.4891 14.0205L76.6346 13ZM72.9139 26.7207C70.9266 26.7207 69.7059 25.1289 69.7059 22.6875C69.7401 20.2998 70.9412 18.9375 72.8846 18.9375C74.8817 18.9375 76.0975 20.2998 76.0975 22.6875C76.0975 25.1436 74.8914 26.7207 72.9139 26.7207ZM80.3287 32.0918L82.0035 32.0918L82.0035 26.3252L82.1499 26.3252C82.5162 26.9209 83.229 28.2295 85.3287 28.2295C88.0582 28.2295 89.9624 26.042 89.9624 22.5752C89.9624 19.1377 88.0582 16.9502 85.2994 16.9502C83.1705 16.9502 82.5162 18.2539 82.1499 18.8252L81.9498 18.8252L81.9498 17.0918L80.3287 17.0918L80.3287 32.0918ZM81.979 22.5459C81.979 20.1045 83.0582 18.4541 85.104 18.4541C87.233 18.4541 88.2828 20.2461 88.2828 22.5459C88.2828 24.875 87.2037 26.7207 85.104 26.7207C83.0874 26.7207 81.979 25.0166 81.979 22.5459ZM96.9498 28.2295C99.9039 28.2295 101.891 25.9834 101.891 22.6045C101.891 19.1914 99.9039 16.9502 96.9498 16.9502C93.9957 16.9502 92.0035 19.1914 92.0035 22.6045C92.0035 25.9834 93.9957 28.2295 96.9498 28.2295ZM96.9498 26.7207C94.7037 26.7207 93.6832 24.792 93.6832 22.6045C93.6832 20.417 94.7037 18.4541 96.9498 18.4541C99.191 18.4541 100.216 20.417 100.216 22.6045C100.216 24.792 99.191 26.7207 96.9498 26.7207ZM104.448 17.0918L104.448 28L117.715 28L117.715 17.0918L116.04 17.0918L116.04 26.4375L111.919 26.4375L111.919 17.0918L110.244 17.0918L110.244 26.4375L106.123 26.4375L106.123 17.0918L104.448 17.0918ZM125.358 28.2295C127.575 28.2295 129.191 27.1211 129.704 25.4707L128.083 25.0166C127.658 26.1543 126.672 26.7207 125.358 26.7207C123.391 26.7207 122.033 25.4512 121.955 23.1123L129.875 23.1123L129.875 22.4043C129.875 18.3418 127.458 16.9502 125.188 16.9502C122.233 16.9502 120.271 19.2793 120.271 22.6289C120.271 25.9834 122.204 28.2295 125.358 28.2295ZM121.955 21.667C122.067 19.9678 123.269 18.4541 125.188 18.4541C127.004 18.4541 128.171 19.8164 128.171 21.667L121.955 21.667ZM134.106 17.0918L132.431 17.0918L132.431 28L134.106 28L134.106 23.3418L139.335 23.3418L139.335 28L141.01 28L141.01 17.0918L139.335 17.0918L139.335 21.7793L134.106 21.7793L134.106 17.0918ZM148.512 28.2295C151.466 28.2295 153.454 25.9834 153.454 22.6045C153.454 19.1914 151.466 16.9502 148.512 16.9502C145.558 16.9502 143.566 19.1914 143.566 22.6045C143.566 25.9834 145.558 28.2295 148.512 28.2295ZM148.512 26.7207C146.266 26.7207 145.246 24.792 145.246 22.6045C145.246 20.417 146.266 18.4541 148.512 18.4541C150.753 18.4541 151.779 20.417 151.779 22.6045C151.779 24.792 150.753 26.7207 148.512 26.7207Z" fill="#000000" fill-opacity="1.000000" fill-rule="evenodd"/>
	<line id="Line 2" x1="13.292908" y1="30.292847" x2="32.292908" y2="11.292847" stroke="#AC6BC2" stroke-opacity="1.000000" stroke-width="2.000000"/>
	<line id="Line 3" x1="32.707092" y1="30.292847" x2="13.707092" y2="11.292847" stroke="#AC6BC2" stroke-opacity="1.000000" stroke-width="2.000000"/>
</svg>
